<?xml version="1.0" encoding="utf-8"?>
<!-- Generator: Adobe Illustrator 24.1.0, SVG Export Plug-In . SVG Version: 6.00 Build 0)  -->
<svg version="1.1" id="Layer_1" xmlns="http://www.w3.org/2000/svg" xmlns:xlink="http://www.w3.org/1999/xlink" x="0px" y="0px"
	 viewBox="0 0 425 927" style="enable-background:new 0 0 425 927;" xml:space="preserve">
<style type="text/css">
	.st0{fill:#110C10;}
	.st1{fill:none;stroke:#83FCF0;stroke-width:5;stroke-miterlimit:10;}
	.st2{fill:#FFFFFF;}
	.st3{font-family:'ArialMT';}
	.st4{font-size:25px;}
	.st5{fill:none;}
	.st6{opacity:0.2;}
	.st7{enable-background:new    ;}
	.st8{font-family:'Arial-BoldMT';}
	.st9{font-size:16px;}
	.st10{opacity:0.5;}
	.st11{font-family:'MyriadPro-Regular';}
	.st12{font-size:12px;}
	.st13{fill:url(#SVGID_1_);}
	.st14{fill:url(#SVGID_2_);}
	.st15{fill:none;stroke:url(#SVGID_3_);stroke-miterlimit:10;}
	.st16{fill:#CEB98E;}
	.st17{opacity:0.1;fill:url(#SVGID_4_);enable-background:new    ;}
	
		.st18{opacity:0.3;fill:none;stroke:url(#SVGID_5_);stroke-width:0.5;stroke-linecap:round;stroke-linejoin:round;stroke-miterlimit:10;enable-background:new    ;}
	.st19{fill:#548C95;}
	.st20{opacity:0.1;fill:url(#SVGID_6_);enable-background:new    ;}
	
		.st21{opacity:0.3;fill:none;stroke:url(#SVGID_7_);stroke-width:0.5;stroke-linecap:round;stroke-linejoin:round;stroke-miterlimit:10;enable-background:new    ;}
	
		.st22{opacity:0.5;fill:none;stroke:#FFFFFF;stroke-linecap:round;stroke-miterlimit:10;stroke-dasharray:0,2;enable-background:new    ;}
	.st23{fill:#BBA67C;}
	.st24{font-size:14px;}
	.st25{opacity:5.000000e-02;fill:url(#SVGID_8_);enable-background:new    ;}
	.st26{opacity:0.1;fill:url(#SVGID_9_);enable-background:new    ;}
	.st27{opacity:0.1;enable-background:new    ;}
	.st28{fill:url(#SVGID_10_);}
	.st29{opacity:5.000000e-02;fill:url(#SVGID_11_);enable-background:new    ;}
	.st30{opacity:5.000000e-02;fill:url(#SVGID_12_);enable-background:new    ;}
	
		.st31{opacity:0.3;fill:none;stroke:url(#SVGID_13_);stroke-width:0.5;stroke-linecap:round;stroke-linejoin:round;stroke-miterlimit:10;enable-background:new    ;}
	.st32{opacity:0.3;enable-background:new    ;}
	.st33{fill:none;stroke:url(#SVGID_14_);stroke-width:0.5;stroke-linecap:round;stroke-linejoin:round;stroke-miterlimit:10;}
	.st34{opacity:5.000000e-02;fill:url(#SVGID_15_);enable-background:new    ;}
	.st35{opacity:0.8;fill:#110C0F;enable-background:new    ;}
	.st36{font-size:18.3488px;}
	.st37{fill:url(#SVGID_16_);}
	.st38{fill:none;stroke:#FFFFFF;stroke-width:0.5;stroke-linecap:round;stroke-miterlimit:10;}
</style>
<rect x="-41.9" y="-55.4" class="st0" width="511.2" height="1062.7"/>
<g>
	<g>
		
			<image style="overflow:visible;" width="850" height="1275" xlink:href="monita.ong.jpeg"  transform="matrix(0.4851 0 0 0.4851 9.3909 219.6832)">
		</image>
		<path class="st1" d="M77,295.7c5.5-13.1,10.9-26.3,16.4-39.4c9.3-6,18.6-12,27.9-18.1h31.2l29.5,25.4h33.6l26.3-11.5h18.9
			l27.9,8.2l24.6,23.8l21.3,41.9l4.9,44.3l-18.1,41.9l-16.4,15.6l2.5,30.4l-23.8,1.6l-3.3,10.7l-9.8,5.7l-4.1,9h-12.3l-13.1,10.7
			l-37.7-15.6l-14.8,18.1l-1.6,17.2l10.7,18.9l4.1,15.6l1.6,33.6l0.8,26.3l19.7,38.6l7.4,15.6l23-11.5l18.9-18.9l14-13.1l14,0.8
			l12.3,0.8"/>
		<polyline class="st1" points="95.8,664.2 139.3,655.2 170.5,659.7 183.6,659.7 183.6,728.2 248.5,691.7 273.9,679 284.6,651 
			296.9,633.8 321.5,626.2 335.5,631.4 388.8,613.3 411,607.6 411,615.8 397.5,621.5 387.2,633 371.6,637.9 374,650.2 362.5,657.6 
			368.3,667.9 359.3,676.5 362.5,690.4 296.9,711.8 246.8,757.7 165.6,803.7 44.9,793.8 30.2,667.5 30.2,611.7 40.8,552.6 
			68.7,498.4 97.5,465.6 133.6,432.2 154.9,403.2 157.2,378.1 		"/>
		<g>
		</g>
		<polyline class="st1" points="220.6,356.6 215.6,362.2 211.4,380.3 215.6,400.9 220.6,414.6 227.6,411.5 227.6,406.5 227.6,401.5 
					"/>
		<path class="st1" d="M175.3,402.7l-17.4-22.4l-8.1-29.9c0.8-9.3,1.7-18.7,2.5-28c-4.3,4.3-14.5,13.4-30.6,17.1
			c-22.5,5.2-40.5-4.1-45.1-6.6c-0.3-0.1-0.6-0.1-0.9-0.3c-5.8-2.5-3.3-19.4-2.8-22.8c1.4-4.7,2.7-9.4,4.1-14.1"/>
		<polyline class="st1" points="233.2,371 222.8,371 217.6,384.6 220.6,394 230.7,397.2 		"/>
		<polyline class="st1" points="301.6,407.8 316.7,414.6 307,426 297.7,420.9 294.5,411 293.2,404 300.9,406.5 		"/>
		<polyline class="st1" points="267.5,477.6 254.7,466.4 276.2,470.4 280.5,470.5 		"/>
	</g>
	<polyline class="st1" points="178,264.5 155.4,312.9 153.3,320.6 	"/>
	<path class="st0" d="M152.9,375.7c-0.1-1.6-1.4-2.4-2.6-2.3c-1.1-3.4-2.4-6.7-4-9.9c0.1-0.3,0.1-0.5,0.1-0.8c0,0,0-0.1,0-0.1
		c0.4-0.5,0.5-1.2,0.3-2c-0.3-1.4-0.6-2.8-0.9-4.1l-0.2-2c-0.1-1.6-1.4-2.4-2.6-2.3c-0.2-0.5-0.4-1-0.6-1.5
		c-0.6-1.4-2.1-1.5-3.2-0.8c-0.2-0.4-0.3-0.8-0.5-1.2c-0.5-1.1-1.6-1.3-2.7-1c1.7-1.4,0.8-4.3-1.5-4.3c-14.6-0.1-28.8,7.7-43.5,5.4
		c-1.4-0.2-2.4,0.7-2.8,1.7c-5.1-1.4-10.2-2.6-15.4-3.6c-2.5-0.5-4.6,3.3-1.9,4.4c0.2,0.1,0.4,0.2,0.6,0.2c0,0,0,0,0,0c0,0,0,0,0,0
		c4.3,1.8,8.7,3.5,13.1,5c-0.7,1-0.6,2.4,0.5,3.3c-2.2,0.2-4.4,0.4-6.6,0.6c-2.7,0.2-3.3,3.9-0.6,4.8c4.1,1.3,8.4,2.2,12.7,2.4
		c0.6,0,1.2,0,1.8,0c-0.1,0.3-0.2,0.6-0.3,0.9c0,0.2,0,0.5,0,0.7c-0.5,1-1,2-1.5,2.9c-0.3,0.3-0.5,0.7-0.6,1.1
		c-0.3,0.6-0.6,1.2-0.9,1.8c-0.2-1.5-2.2-2.7-3.7-1.9c-0.7,0.4-1.4,0.7-2.1,1.1c-2.8,0.7-5.3,1.9-7.6,3.8c-0.1,0-0.2-0.1-0.3-0.1
		c-0.6-0.2-1.1-0.4-1.7-0.5c-2.5-1.9-5-3.7-7.6-5.4c-2-1.3-4.8,1.3-3.3,3.3c4.2,5.7,8.7,11.3,13.4,16.5c-0.5,0.5-0.8,1.3-0.6,2.2
		c0.4,2.2,0.9,4.3,1.6,6.4c-0.5,0.9-0.6,2,0.3,3c0.5,0.6,1,1.1,1.6,1.5c0.2,0.4,0.4,0.7,0.5,1.1c-1.3,0.2-2.4,1.4-2.1,3
		c0.6,2.8,1.7,5.3,3.4,7.6c0.8,1.1,2.7,1.8,3.8,0.5c0.5-0.6,1.1-1.3,1.7-1.9c0.6,0.2,1.3,0.1,1.8-0.3c2.2,3,4.7,5.7,7.6,8.1
		c-0.3,2.9-0.6,5.9-0.8,8.8c-0.2,2.1,2.8,3.3,4.1,1.7c1.6-1.9,3.2-3.8,4.8-5.8c0.7-0.1,1.3-0.5,1.6-1.1c0.4-0.6,0.6-1.3,0.8-1.9
		c3.7-4.7,7.3-9.4,10.7-14.3c3.8-2.5,7.5-4.9,11.3-7.4c0.5,0.3,1.1,0.6,1.7,0.8c0.8,0.3,1.8,0,2.4-0.6c0.4,0.2,0.8,0.5,1.2,0.7
		c1.5,0.8,3.7-0.2,3.6-2.1c-0.1-2.6-0.2-5.3-0.1-7.9c0.3-0.9,0.5-1.9,0.8-2.8c0.1-0.1,0.2-0.1,0.3-0.2c0.1,0.2,0.3,0.4,0.4,0.6
		c1.3,1.9,4.5,1.3,4.5-1.2c0-1.1,0-2.2,0.1-3.3c1.2-1,2.5-1.9,3.7-2.9l0.5,2v5.3c0,3.1,4.9,3.1,4.9,0v-2.2c0.4-0.4,0.7-1,0.8-1.6
		C153.3,383.9,153.3,379.8,152.9,375.7z M90.7,382.5c0.1-0.1,0.1-0.2,0.2-0.4c0,0.3,0.1,0.5,0.2,0.8C91,382.8,90.8,382.7,90.7,382.5
		z M91.8,411.6c-0.1-0.2-0.2-0.4-0.4-0.5c0.1-0.1,0.2-0.2,0.4-0.2c0.2-0.1,0.4-0.2,0.6-0.4C92.2,410.8,92,411.2,91.8,411.6z
		 M137.5,360.2c0.1,0.5,0.4,0.9,0.7,1.2l0.3,1.9c-0.8-1.2-2.1-1.1-3.1-0.4c-0.1-1-0.1-2-0.2-3c0-1.8,0.1-3.5,0.7-5.1
		C136.6,356.6,137.1,358.4,137.5,360.2z M109.6,375.4c0.1-0.5,0-1.1-0.3-1.7c-0.3-0.5-0.5-1-0.8-1.5c0.9,0.7,2.1,0.5,2.9-0.2
		c0.4,0.2,0.8,0.3,1.2,0.2c0,0,0,0.1,0,0.1c0.1,0.2,0.3,0.4,0.4,0.5c-0.6,1.1-1.2,2.1-1.9,3.2C110.8,375.9,110.2,375.6,109.6,375.4z
		 M130.7,361.1c0,0,0-0.1-0.1-0.1c-0.2-0.4-0.5-0.7-0.8-0.9c0.3-0.3,0.5-0.7,0.8-1C130.6,359.7,130.6,360.4,130.7,361.1z
		 M131.7,380.9c0.1,0.4,0.2,0.7,0.4,1.1c-0.4-0.3-1-0.6-1.5-0.6C130.9,381.3,131.3,381.1,131.7,380.9z M133.3,349.8
		c-0.2,0-0.4,0-0.5,0c0.5-0.3,0.9-0.6,1.4-0.9C133.8,349.2,133.5,349.5,133.3,349.8z M114.9,352.1c-0.1-0.3-0.2-0.7-0.4-1
		c2.9-0.6,5.7-1.3,8.6-1.8C120.4,350.3,117.7,351.2,114.9,352.1z M100.6,354.2c0.9,0,1.7,0,2.6,0.1c-0.3,0.2-0.6,0.4-0.8,0.5
		C101.8,354.6,101.2,354.4,100.6,354.2z M104.9,386.4c0.4-0.4,0.6-0.9,0.5-1.6c0,0,0-0.1,0-0.1c0.2-0.1,0.4-0.1,0.6-0.2
		c-0.1,0.3-0.1,0.6,0,1c-0.1,0.3-0.3,0.5-0.4,0.8C105.3,386.3,105.1,386.3,104.9,386.4z M127.6,375.6c0.1,0.2,0.1,0.5,0.2,0.7
		c0.1,0.3,0.3,0.6,0.5,0.9c-0.6,0.3-1.2,0.6-1.7,0.9c-0.2,0.1-0.4,0.2-0.6,0.4C126.5,377.5,127.1,376.6,127.6,375.6z M102.2,421.9
		c-0.4-0.3-0.8-0.6-1.2-0.9c0.1-1.2,0.2-2.4,0.3-3.6C101.9,418.9,102.3,420.4,102.2,421.9z M106.2,417.3c-0.4-1.2-0.9-2.3-1.5-3.5
		c0.1-0.1,0.2-0.2,0.3-0.4c0.5,0.1,1,0,1.5-0.4c0.2-0.1,0.3-0.2,0.5-0.3c0.4,0.6,1,1,1.6,1.2C107.9,415.1,107.1,416.2,106.2,417.3z
		 M119.5,390.9c1.9-2.5,4.1-4.8,6.6-6.6c0.7-0.6,1.5-1.1,2.3-1.6c-0.5,0.5-1,1-1.4,1.5c-1.6,1.7-3.3,3.4-5,5.1
		C121.2,389.8,120.3,390.3,119.5,390.9z"/>
</g>
<g>
	<text transform="matrix(1 0 0 1 89.5999 79.7146)" class="st2 st3 st4">PROBLEMAS COMUNES</text>
</g>
<g>
	<path class="st5" d="M-444.8,564.7"/>
</g>
<g class="st6">
	<path class="st2" d="M162.3,370.1c-0.3,3.1-0.9,6.2-1.7,9.2s-1.8,6-2.9,8.9c-2.2,5.8-4.9,11.5-8,16.8c-3.1,5.4-6.4,10.7-10.2,15.7
		c-1.8,2.6-3.7,5-5.5,7.5s-3.7,5-5.4,7.6c-3.5,5.1-6.9,10.4-10,15.7c-1.6,2.7-3.1,5.4-4.5,8.2c-1.4,2.8-2.7,5.6-3.9,8.5
		c-2.4,5.8-4.1,11.8-4.7,18c-0.7,6.2,0,12.5,2.4,18.2l0.1,0.1l-0.1,0.1c-3.3,3.3-6.5,6.6-9.6,10c-1.6,1.7-3.1,3.5-4.5,5.2
		c-1.4,1.8-2.9,3.6-4.1,5.6v0.1h-0.1c-3.9,0.8-7.8,2-11.5,3.4s-7.4,3.2-10.9,5.2c-6.9,4.1-13.1,9.4-17.8,16
		c-2.4,3.3-4.3,6.8-5.8,10.6c-1.6,3.7-3.1,7.4-4.7,11.1s-3,7.5-4.5,11.2c-0.7,1.9-1.4,3.7-2.2,5.6c-0.7,1.9-1.4,3.8-1.9,5.7
		c0.5-2,1.2-3.9,1.9-5.8c0.7-1.9,1.4-3.8,2.1-5.6c1.4-3.7,2.9-7.5,4.5-11.2c1.5-3.7,3.1-7.5,4.6-11.1c1.6-3.7,3.5-7.3,5.8-10.6
		c4.7-6.6,10.9-12,17.9-16.1c3.5-2,7.1-3.8,10.9-5.3c3.7-1.4,7.6-2.7,11.6-3.4l-0.1,0.1c1.2-2,2.7-3.8,4.1-5.6s3-3.5,4.5-5.2
		c3.1-3.4,6.3-6.8,9.6-10l-0.1,0.2c-2.5-5.8-3.1-12.2-2.5-18.4c0.7-6.2,2.4-12.3,4.8-18c1.2-2.9,2.5-5.7,3.9-8.5s2.9-5.5,4.5-8.2
		c3.1-5.4,6.6-10.6,10.1-15.7c1.8-2.6,3.6-5.1,5.4-7.6s3.7-5,5.5-7.5c3.7-5,7.1-10.3,10.2-15.7c3.1-5.4,5.8-11,8.1-16.8
		c1.1-2.9,2.2-5.8,2.9-8.8C161.3,376.3,162,373.2,162.3,370.1z"/>
</g>
<g class="st6">
	<path class="st2" d="M30.4,621.1c-0.5-14.9,0.6-29.9,2.7-44.6c1-7.4,2.4-14.7,4.1-22s3.6-14.5,5.9-21.6s5-14.1,8.1-20.9
		c0.8-1.7,1.5-3.4,2.4-5.1l2.5-5c0.9-1.7,1.8-3.3,2.7-4.9l1.4-2.4l1.4-2.4c3.7-6.5,8.1-12.6,12.7-18.4l3.6-4.3
		c1.2-1.4,2.5-2.8,3.8-4.1l1.9-2c0.7-0.7,1.3-1.3,2-2l4-3.9c-10.8,10.3-20.1,22.2-27.7,35l-1.4,2.4l-1.3,2.4
		c-0.9,1.6-1.8,3.3-2.6,4.9l-2.5,5c-0.9,1.6-1.5,3.4-2.3,5.1c-3,6.8-5.6,13.8-7.9,20.9c-2.3,7.1-4.3,14.3-6,21.6
		c-1.6,7.3-3,14.6-4.1,22s-1.9,14.8-2.4,22.2C30.5,606.2,30.2,613.7,30.4,621.1z"/>
</g>
<text transform="matrix(1 0 0 1 212.5 222.2181)" class="st7"><tspan x="0" y="0" class="st2 st8 st9">Jaquecas </tspan><tspan x="0" y="19.2" class="st2 st8 st9">crónicas</tspan></text>
<g class="st10">
	<text transform="matrix(1 0 0 1 339.5601 295.7121)" class="st7"><tspan x="0" y="0" class="st2 st11 st12">Dificultad para girar </tspan><tspan x="0" y="14.4" class="st2 st11 st12">la cabeza</tspan></text>
</g>
<g class="st10">
</g>
<g class="st10">
	<g>
		<text transform="matrix(1 0 0 1 46.8774 437.2039)" class="st7"><tspan x="0" y="0" class="st2 st11 st12">Musculos</tspan><tspan x="0" y="14.4" class="st2 st11 st12"> tensos</tspan></text>
	</g>
</g>
<g class="st10">
	<text transform="matrix(1 0 0 1 213.6512 545.4401)" class="st7"><tspan x="0" y="0" class="st2 st11 st12">Musculos </tspan><tspan x="0" y="14.4" class="st2 st11 st12">débiles</tspan></text>
</g>
<g class="st10">
	<g>
		<text transform="matrix(1 0 0 1 339.5596 594.7167)" class="st2 st11 st12">Luz azul</text>
	</g>
</g>
<g>
	<g>
		
			<linearGradient id="SVGID_1_" gradientUnits="userSpaceOnUse" x1="271.2489" y1="2465.3213" x2="341.053" y2="2486.5627" gradientTransform="matrix(1 0 0 -1 0 2816)">
			<stop  offset="1.800003e-03" style="stop-color:#CEB98E"/>
			<stop  offset="0.161" style="stop-color:#DACAAA;stop-opacity:0.8405"/>
			<stop  offset="0.4075" style="stop-color:#EAE1CF;stop-opacity:0.5935"/>
			<stop  offset="0.6374" style="stop-color:#F6F1E9;stop-opacity:0.3633"/>
			<stop  offset="0.8419" style="stop-color:#FDFBF9;stop-opacity:0.1584"/>
			<stop  offset="1" style="stop-color:#FFFFFF;stop-opacity:0"/>
		</linearGradient>
		<path class="st13" d="M269.1,330.4c7.6,2.9,15.2,5.6,22.8,8.3c7.7,2.6,15.3,5.1,23.1,7.2c3.9,1,7.8,2,11.7,2.7
			c2,0.3,3.9,0.7,5.9,0.8c2,0.1,3.9,0.2,5.8-0.1c0.9-0.2,1.8-0.5,2.4-0.9s0.9-1.2,0.9-2c-0.1-0.9-0.4-1.8-0.8-2.6
			c-0.5-0.9-1-1.7-1.6-2.5c-1.2-1.6-2.6-3.1-4-4.5s-2.8-3-4.2-4.5l4.7,3.9c1.6,1.3,3,2.8,4.4,4.3c0.7,0.8,1.3,1.6,1.8,2.6
			c0.5,0.9,1,1.9,1.2,3.1c0.1,0.6,0,1.2-0.2,1.8c-0.2,0.6-0.7,1.2-1.1,1.6c-1,0.8-2,1.2-3.1,1.4c-2.2,0.5-4.3,0.6-6.4,0.5
			s-4.1-0.2-6.2-0.5c-4.1-0.5-8.1-1.2-12.2-2c-8.1-1.6-15.9-3.6-23.9-5.8c-7.9-2.2-15.7-4.5-23.5-6.9L269.1,330.4z"/>
		<g>
			
				<linearGradient id="SVGID_2_" gradientUnits="userSpaceOnUse" x1="266.3145" y1="2481.5369" x2="336.1186" y2="2502.7786" gradientTransform="matrix(1 0 0 -1 0 2816)">
				<stop  offset="1.800003e-03" style="stop-color:#CEB98E"/>
				<stop  offset="0.161" style="stop-color:#DACAAA;stop-opacity:0.8405"/>
				<stop  offset="0.4075" style="stop-color:#EAE1CF;stop-opacity:0.5935"/>
				<stop  offset="0.6374" style="stop-color:#F6F1E9;stop-opacity:0.3633"/>
				<stop  offset="0.8419" style="stop-color:#FDFBF9;stop-opacity:0.1584"/>
				<stop  offset="1" style="stop-color:#FFFFFF;stop-opacity:0"/>
			</linearGradient>
			<polygon class="st14" points="267.7,340.3 259.1,330.4 272,328 			"/>
		</g>
	</g>
</g>
<g>
	<text transform="matrix(1 0 0 1 334.3099 419.6183)" class="st7"><tspan x="0" y="0" class="st2 st8 st9">Visión</tspan><tspan x="0" y="19.2" class="st2 st8 st9"> borrosa</tspan></text>
	<rect x="339.1" y="404.3" class="st5" width="36.1" height="24.9"/>
</g>
<g>
	<rect x="56.1" y="99" class="st5" width="328.9" height="34.5"/>
	<text transform="matrix(1 0 0 1 34.3954 116.2957)" class="st7"><tspan x="0" y="0" class="st2 st11 st9">El uso excesivo de teléfono puede aumentar el riesgo</tspan><tspan x="66.7" y="19.2" class="st2 st11 st9">de desarrillar problemas de salud</tspan></text>
</g>
<g>
	
		<linearGradient id="SVGID_3_" gradientUnits="userSpaceOnUse" x1="2315.5251" y1="-3241.9365" x2="2395.2834" y2="-3241.9365" gradientTransform="matrix(0.5976 -0.8017 0.8017 0.5976 1273.6088 4517.0713)">
		<stop  offset="0" style="stop-color:#FFFFFF;stop-opacity:0"/>
		<stop  offset="0.9982" style="stop-color:#CEB98E"/>
	</linearGradient>
	<path class="st15" d="M87.3,645.9c12.4,29,9.6,63.7-10.7,91"/>
	<g>
		<polygon class="st16" points="81.8,649 84.1,637.1 93.2,644.7 		"/>
	</g>
</g>
<g>
	<g>
		<text transform="matrix(1 0 0 1 50.3917 758.8373)" class="st2 st8 st9">The spine&apos;s </text>
		<text transform="matrix(1 0 0 1 50.3917 778.0374)" class="st2 st8 st9">curvature</text>
	</g>
</g>
<g>
	
		<linearGradient id="SVGID_4_" gradientUnits="userSpaceOnUse" x1="56.8913" y1="3.621" x2="56.8913" y2="83.324" gradientTransform="matrix(1 0 0 -1 0 926)">
		<stop  offset="0" style="stop-color:#FFFFFF;stop-opacity:0"/>
		<stop  offset="0.1413" style="stop-color:#FFFFFF;stop-opacity:0.1413"/>
		<stop  offset="1" style="stop-color:#FFFFFF"/>
	</linearGradient>
	<path class="st17" d="M77.3,922.4L77.3,922.4c0,0,0.8-10.8-1.6-17.2c-2.4-6.5-5-6.9-8.8-10.4c-3.8-3.4-7.8-6.6-7.7-9.3
		c0.1-2.7,0.9-5.2,0.9-7.2c0.1-2,1.2-2.6,3.4-2.6c2.2,0,4.8,1.1,6.3,0.3s0.4-3,0.8-3.7c0.4-0.7,1.5-0.9,1.4-1.2
		c-0.2-0.4-0.7-1-1.5-1c0,0,1.7-1,1.7-1.5c0,0-0.5-1.3-1.2-1.9c0,0,2.8-1.3,2.6-2.2s-0.9-1.6-1.8-2.6c-0.9-1-2.4-2.4-2.5-3.3
		c-0.1-0.9,0.3-1.7,0.3-2.5c0-0.8,0.2-1.5-0.4-2.8s-0.6-1.3-0.6-1.3s-1.3-3-2.2-4.2c-0.8-1.2-3.3-5.2-12.1-5.1c0,0-7.1-1-11.6,5.1
		s-2.8,12.5-1.3,15c1.5,2.5,5.6,5.5,4.7,12.1c-0.9,6.6-1.9,8.8-5.9,17.8c-7,15.7-2.3,28-1.5,29.6"/>
	
		<linearGradient id="SVGID_5_" gradientUnits="userSpaceOnUse" x1="56.8913" y1="3.371" x2="56.8913" y2="83.574" gradientTransform="matrix(1 0 0 -1 0 926)">
		<stop  offset="0" style="stop-color:#FFFFFF;stop-opacity:0"/>
		<stop  offset="1" style="stop-color:#FFFFFF"/>
	</linearGradient>
	<path class="st18" d="M77.3,922.4L77.3,922.4c0,0,0.8-10.8-1.6-17.2c-2.4-6.5-5-6.9-8.8-10.4c-3.8-3.4-7.8-6.6-7.7-9.3
		c0.1-2.7,0.9-5.2,0.9-7.2c0.1-2,1.2-2.6,3.4-2.6c2.2,0,4.8,1.1,6.3,0.3s0.4-3,0.8-3.7c0.4-0.7,1.5-0.9,1.4-1.2
		c-0.2-0.4-0.7-1-1.5-1c0,0,1.7-1,1.7-1.5c0,0-0.5-1.3-1.2-1.9c0,0,2.8-1.3,2.6-2.2s-0.9-1.6-1.8-2.6c-0.9-1-2.4-2.4-2.5-3.3
		c-0.1-0.9,0.3-1.7,0.3-2.5c0-0.8,0.2-1.5-0.4-2.8s-0.6-1.3-0.6-1.3s-1.3-3-2.2-4.2c-0.8-1.2-3.3-5.2-12.1-5.1c0,0-7.1-1-11.6,5.1
		s-2.8,12.5-1.3,15c1.5,2.5,5.6,5.5,4.7,12.1c-0.9,6.6-1.9,8.8-5.9,17.8c-7,15.7-2.3,28-1.5,29.6"/>
	<g>
		<path class="st19" d="M51.6,869.6c0.1,3.7-0.4,7.4-1.1,11.1c-0.7,3.7-1.5,7.3-2.6,10.9l-1.7,5.3c-0.5,1.7-1,3.5-1.3,5.2
			c-0.7,3.5-0.9,7.1-0.5,10.6c0.3,3.5,1.2,7.1,2.2,10.6c0.5,1.8,1,3.5,1.5,5.3c0.5,1.8,1,3.5,1.5,5.4c0.9,3.7,1.4,7.4,1.3,11.2
			c-0.1,1.9-0.3,3.8-0.8,5.6c-0.5,1.8-1.2,3.6-2.4,5.1c0.5-0.8,0.8-1.7,1-2.6c0.3-0.9,0.4-1.8,0.5-2.7c0.2-1.8,0.3-3.6,0.2-5.4
			c-0.2-3.6-1-7.2-2.1-10.6c-2.2-6.9-5-13.9-5.9-21.6c-0.3-3.8-0.1-7.7,0.7-11.5c0.8-3.7,2.2-7.3,3.5-10.7c1.2-3.4,2.4-6.9,3.4-10.5
			C50.2,876.8,51,873.2,51.6,869.6z"/>
	</g>
</g>
<g>
	
		<linearGradient id="SVGID_6_" gradientUnits="userSpaceOnUse" x1="129.7931" y1="3.621" x2="129.7931" y2="81.1525" gradientTransform="matrix(1 0 0 -1 0 926)">
		<stop  offset="0" style="stop-color:#FFFFFF;stop-opacity:0"/>
		<stop  offset="0.1413" style="stop-color:#FFFFFF;stop-opacity:0.1413"/>
		<stop  offset="1" style="stop-color:#FFFFFF"/>
	</linearGradient>
	<path class="st20" d="M143.1,922.4h0.1c0,0,1.9-11-2.9-19.5c-4.8-8.6-11.5-8.6-12.1-16.8c-0.2-2.7,3.7-3.8,4.8-5.4
		c1.1-1.6,2.4-1.4,4.3-0.2c1.8,1.2,3.3,3.6,5.1,3.7s2-2.3,2.7-2.6c0.7-0.3,1.8,0.1,1.9-0.2c0.1-0.4,0-1.2-0.7-1.7
		c0,0,1.9,0.1,2.2-0.3c0,0,0.3-1.3,0.1-2.2c0,0,3,0.5,3.4-0.4c0.4-0.9,0.1-1.8,0-3.2c-0.2-1.3-0.7-3.3-0.3-4.1s1.2-1.3,1.7-1.9
		s1-1.2,1.2-2.6s0.2-1.4,0.2-1.4s0.6-3.2,0.6-4.7c0-1.4,0.1-6.2-7.2-11c0,0-5.3-4.8-12.5-2.3s-9.4,8.8-9.5,11.8s1.6,7.7-2.9,12.7
		c0,0-11.6,10.3-14.9,17.9c-3.3,7.6-4.6,13.2-3.6,18.6c1,5.4,2.3,12.3,2.3,15.8"/>
	
		<linearGradient id="SVGID_7_" gradientUnits="userSpaceOnUse" x1="129.7931" y1="3.371" x2="129.7931" y2="81.4025" gradientTransform="matrix(1 0 0 -1 0 926)">
		<stop  offset="0" style="stop-color:#FFFFFF;stop-opacity:0"/>
		<stop  offset="1" style="stop-color:#FFFFFF"/>
	</linearGradient>
	<path class="st21" d="M143.1,922.4h0.1c0,0,1.9-11-2.9-19.5c-4.8-8.6-11.5-8.6-12.1-16.8c-0.2-2.7,3.7-3.8,4.8-5.4
		c1.1-1.6,2.4-1.4,4.3-0.2c1.8,1.2,3.3,3.6,5.1,3.7s2-2.3,2.7-2.6c0.7-0.3,1.8,0.1,1.9-0.2c0.1-0.4,0-1.2-0.7-1.7
		c0,0,1.9,0.1,2.2-0.3c0,0,0.3-1.3,0.1-2.2c0,0,3,0.5,3.4-0.4c0.4-0.9,0.1-1.8,0-3.2c-0.2-1.3-0.7-3.3-0.3-4.1s1.2-1.3,1.7-1.9
		s1-1.2,1.2-2.6s0.2-1.4,0.2-1.4s0.6-3.2,0.6-4.7c0-1.4,0.1-6.2-7.2-11c0,0-5.3-4.8-12.5-2.3s-9.4,8.8-9.5,11.8s1.6,7.7-2.9,12.7
		c0,0-11.6,10.3-14.9,17.9c-3.3,7.6-4.6,13.2-3.6,18.6c1,5.4,2.3,12.3,2.3,15.8"/>
	<g>
		<path class="st19" d="M131.2,868.3c0,2-0.7,4.1-1.8,5.8c-1.1,1.8-2.7,3.2-4.5,4.4l-2.6,1.5l-1.1,0.8l-1.1,0.9
			c-1.4,1.3-2.6,2.8-3.7,4.5c-1.1,1.6-1.8,3.4-2.6,5.2c-0.6,1.8-1.2,3.7-1.5,5.6c-0.7,3.8-0.7,7.7-0.1,11.6
			c0.5,3.9,1.5,7.7,2.6,11.5c1.1,3.8,2.6,7.6,3.5,11.6c0.2,1,0.5,2,0.6,3.1l0.2,1.5c0.1,0.5,0.1,1,0.1,1.6c0.1,1,0.1,2.1,0,3.1
			c0,1-0.2,2.1-0.3,3.1c-0.6,4.1-1.8,8-3.2,11.8c0.9-4,1.6-7.9,1.8-11.9c0.2-4-0.3-7.9-1.4-11.6c-1.1-3.8-2.7-7.5-4-11.4
			c-1.3-3.9-2.3-7.9-2.9-12c-0.5-4.1-0.5-8.4,0.3-12.5c0.4-2.1,1.1-4.1,1.8-6c0.9-1.9,1.8-3.8,3.1-5.5c1.2-1.7,2.6-3.3,4.3-4.6
			l1.3-0.9c0.4-0.3,0.9-0.6,1.4-0.8l1.4-0.7l1.3-0.6c1.7-0.9,3.3-2.1,4.5-3.6C130,872.1,130.9,870.3,131.2,868.3z"/>
	</g>
</g>
<g class="st10">
	<text transform="matrix(1 0 0 1 21.6953 944.6254)" class="st7"><tspan x="0" y="0" class="st2 st11 st24">Curvatura</tspan><tspan x="0" y="16.8" class="st2 st11 st24">normal</tspan></text>
</g>
<g class="st10">
	<text transform="matrix(1 0 0 1 105.9438 944.6254)" class="st7"><tspan x="0" y="0" class="st2 st11 st24">Curvatura </tspan><tspan x="0" y="16.8" class="st2 st11 st24">extrema</tspan></text>
</g>
<line class="st22" x1="126.1" y1="878.6" x2="166.2" y2="838.5"/>
<g>
	<text transform="matrix(1 0 0 1 172.0087 801.6364)" class="st23 st8 st24">45°</text>
</g>
<line class="st22" x1="309.6" y1="277.7" x2="349.7" y2="237.6"/>
<g>
	<text transform="matrix(1 0 0 1 341.6265 233.4235)" class="st23 st8 st24">45°</text>
</g>
<g>
	<text transform="matrix(1 0 0 1 292.0722 849.5543)" class="st7"><tspan x="0" y="0" class="st2 st8 st9">Pérdida de </tspan><tspan x="0" y="19.2" class="st2 st8 st9">capacidad</tspan><tspan x="0" y="38.4" class="st2 st8 st9">pulmonar</tspan></text>
</g>
<linearGradient id="SVGID_8_" gradientUnits="userSpaceOnUse" x1="334.603" y1="129.9758" x2="334.603" y2="149.0061" gradientTransform="matrix(1 0 0 -1 0 926)">
	<stop  offset="0" style="stop-color:#FFFFFF;stop-opacity:0"/>
	<stop  offset="0.1413" style="stop-color:#FFFFFF;stop-opacity:0.1413"/>
	<stop  offset="1" style="stop-color:#FFFFFF"/>
</linearGradient>
<path class="st25" d="M340.1,786.7l-0.3-0.6c-0.8-1.3-1.8-2.3-2.1-3.1c0,0-2.1-1.1-2.8-1.8c0,0-4.3-1.7-6-4.2c0,0-0.7,7.3-0.4,10.2
	s0.2,8.8,0.2,8.8s6.3,0,8.4,0c0.4-1.8,3.8-3.3,3.8-6.2C340.8,788.6,340.5,787.6,340.1,786.7z"/>
<linearGradient id="SVGID_9_" gradientUnits="userSpaceOnUse" x1="308.9685" y1="118.77" x2="308.9685" y2="177.7482" gradientTransform="matrix(1 0 0 -1 0 926)">
	<stop  offset="0" style="stop-color:#FFFFFF;stop-opacity:0"/>
	<stop  offset="0.1413" style="stop-color:#FFFFFF;stop-opacity:0.1413"/>
	<stop  offset="1" style="stop-color:#FFFFFF"/>
</linearGradient>
<path class="st26" d="M295.5,783.9c0,0,0.4-4.5,0.4-5.8c0-1.3-0.1-2.6,0.8-3.4c0.9-0.9,0.2-4.3,1.5-5.5c1.3-1.3-0.2-1,0.6-2.9
	c0.9-1.9,2.2-2.2,2.6-3.9c0.4-1.7,0.6-3.6,6.1-8.4s7.2-5.7,8.7-5.7c1.4,0,3.4,0.1,4.1,3.8c0.7,3.6,1.4,3.4,1.4,6.2
	c0,2.8-0.6,7.5-0.6,7.5s2.3,2.7,2.3,4.5v11.7c0,0,1.1,5.9-2.3,9.4c-3.5,3.5-6.5,7.3-10.6,7.3c0,0-6.2,8.7-11.4,8.7
	c-5.1,0-3.8-5-3.8-5S293.6,788.1,295.5,783.9z"/>
<g class="st27">
	
		<linearGradient id="SVGID_10_" gradientUnits="userSpaceOnUse" x1="342.253" y1="120.4516" x2="342.253" y2="178.6747" gradientTransform="matrix(1 0 0 -1 0 926)">
		<stop  offset="0" style="stop-color:#FFFFFF;stop-opacity:0"/>
		<stop  offset="0.1413" style="stop-color:#FFFFFF;stop-opacity:0.1413"/>
		<stop  offset="1" style="stop-color:#FFFFFF"/>
	</linearGradient>
	<path class="st28" d="M327.9,764c-0.2-0.9-1.6-7-0.8-10c0.8-3.3,2-8.9,9-5.8c7,3.1,5.2,3.8,7.3,6c2.2,2.2,2.8,3.2,6.1,7.6
		c3.3,4.4,4.5,6.5,4.8,11.6c0.3,5.1,2.1,1.2,2.1,6.6c0,5.4,1.1,7.7,1.1,10.4c0,2.6-0.9,5.5-0.6,6.4c0.4,0.9-0.7,4.8,0.2,5.8
		c1,1,1.2,3.9-2.7,2.8c0,0-8.2-2.2-11.3-6.9c-2.3,0.6-5,0.9-6-0.5c-0.4-0.5-0.5-1-0.4-1.5c0.4-1.8,3.8-3.3,3.8-6.2
		c0-1.3-0.3-2.3-0.7-3.2c-0.1-0.2-0.2-0.4-0.3-0.6c-0.8-1.3-1.8-2.3-2.1-3.1c0,0-2.1-1.1-2.8-1.8c0,0-4.3-1.7-6-4.2
		c-0.2-0.3-0.4-0.6-0.5-1c-1.1-3.1-1.2-6-0.7-9.5c0.3-1.9,0.4-2.5,0.5-2.6L327.9,764L327.9,764z"/>
</g>
<linearGradient id="SVGID_11_" gradientUnits="userSpaceOnUse" x1="325.6129" y1="157.984" x2="325.6129" y2="192.8337" gradientTransform="matrix(1 0 0 -1 0 926)">
	<stop  offset="0" style="stop-color:#FFFFFF;stop-opacity:0"/>
	<stop  offset="0.1413" style="stop-color:#FFFFFF;stop-opacity:0.1413"/>
	<stop  offset="1" style="stop-color:#FFFFFF"/>
</linearGradient>
<path class="st29" d="M326.2,733.2c0,0,1,6.6,0.4,10.9c-0.6,4.3-0.7,9.3,0.2,16l4.8,3.5l-3.7,4.4l-3.6-3.2l-3.2,3.2l-1.4-4
	c0,0,2.8-1.7,2.8-5.6c0-3.9-0.4-8.7-0.4-14.3c0-3.9-0.3-7.7-0.3-10.9"/>
<linearGradient id="SVGID_12_" gradientUnits="userSpaceOnUse" x1="334.603" y1="129.9758" x2="334.603" y2="149.0061" gradientTransform="matrix(1 0 0 -1 0 926)">
	<stop  offset="0" style="stop-color:#FFFFFF;stop-opacity:0"/>
	<stop  offset="0.1413" style="stop-color:#FFFFFF;stop-opacity:0.1413"/>
	<stop  offset="1" style="stop-color:#FFFFFF"/>
</linearGradient>
<path class="st30" d="M340.1,786.7l-0.3-0.6c-0.8-1.3-1.8-2.3-2.1-3.1c0,0-2.1-1.1-2.8-1.8c0,0-4.3-1.7-6-4.2c0,0-0.7,7.3-0.4,10.2
	s0.2,8.8,0.2,8.8s6.3,0,8.4,0c0.4-1.8,3.8-3.3,3.8-6.2C340.8,788.6,340.5,787.6,340.1,786.7z"/>
<linearGradient id="SVGID_13_" gradientUnits="userSpaceOnUse" x1="308.9685" y1="118.52" x2="308.9685" y2="177.9982" gradientTransform="matrix(1 0 0 -1 0 926)">
	<stop  offset="0" style="stop-color:#FFFFFF;stop-opacity:0"/>
	<stop  offset="1" style="stop-color:#FFFFFF"/>
</linearGradient>
<path class="st31" d="M295.5,783.9c0,0,0.4-4.5,0.4-5.8c0-1.3-0.1-2.6,0.8-3.4c0.9-0.9,0.2-4.3,1.5-5.5c1.3-1.3-0.2-1,0.6-2.9
	c0.9-1.9,2.2-2.2,2.6-3.9c0.4-1.7,0.6-3.6,6.1-8.4s7.2-5.7,8.7-5.7c1.4,0,3.4,0.1,4.1,3.8c0.7,3.6,1.4,3.4,1.4,6.2
	c0,2.8-0.6,7.5-0.6,7.5s2.3,2.7,2.3,4.5v11.7c0,0,1.1,5.9-2.3,9.4c-3.5,3.5-6.5,7.3-10.6,7.3c0,0-6.2,8.7-11.4,8.7
	c-5.1,0-3.8-5-3.8-5S293.6,788.1,295.5,783.9z"/>
<g class="st32">
	
		<linearGradient id="SVGID_14_" gradientUnits="userSpaceOnUse" x1="342.253" y1="120.2016" x2="342.253" y2="178.9247" gradientTransform="matrix(1 0 0 -1 0 926)">
		<stop  offset="0" style="stop-color:#FFFFFF;stop-opacity:0"/>
		<stop  offset="1" style="stop-color:#FFFFFF"/>
	</linearGradient>
	<path class="st33" d="M327.9,764c-0.2-0.9-1.6-7-0.8-10c0.8-3.3,2-8.9,9-5.8c7,3.1,5.2,3.8,7.3,6c2.2,2.2,2.8,3.2,6.1,7.6
		c3.3,4.4,4.5,6.5,4.8,11.6c0.3,5.1,2.1,1.2,2.1,6.6c0,5.4,1.1,7.7,1.1,10.4c0,2.6-0.9,5.5-0.6,6.4c0.4,0.9-0.7,4.8,0.2,5.8
		c1,1,1.2,3.9-2.7,2.8c0,0-8.2-2.2-11.3-6.9c-2.3,0.6-5,0.9-6-0.5c-0.4-0.5-0.5-1-0.4-1.5c0.4-1.8,3.8-3.3,3.8-6.2
		c0-1.3-0.3-2.3-0.7-3.2c-0.1-0.2-0.2-0.4-0.3-0.6c-0.8-1.3-1.8-2.3-2.1-3.1c0,0-2.1-1.1-2.8-1.8c0,0-4.3-1.7-6-4.2
		c-0.2-0.3-0.4-0.6-0.5-1c-1.1-3.1-1.2-6-0.7-9.5c0.3-1.9,0.4-2.5,0.5-2.6L327.9,764L327.9,764z"/>
</g>
<linearGradient id="SVGID_15_" gradientUnits="userSpaceOnUse" x1="325.6129" y1="157.984" x2="325.6129" y2="192.8337" gradientTransform="matrix(1 0 0 -1 0 926)">
	<stop  offset="0" style="stop-color:#FFFFFF;stop-opacity:0"/>
	<stop  offset="0.1413" style="stop-color:#FFFFFF;stop-opacity:0.1413"/>
	<stop  offset="1" style="stop-color:#FFFFFF"/>
</linearGradient>
<path class="st34" d="M326.2,733.2c0,0,1,6.6,0.4,10.9c-0.6,4.3-0.7,9.3,0.2,16l4.8,3.5l-3.7,4.4l-3.6-3.2l-3.2,3.2l-1.4-4
	c0,0,2.8-1.7,2.8-5.6c0-3.9-0.4-8.7-0.4-14.3c0-3.9-0.3-7.7-0.3-10.9"/>
<rect x="293.1" y="727.6" class="st35" width="65.9" height="33.8"/>
<line class="st22" x1="291.5" y1="762.1" x2="362.7" y2="762.1"/>
<g>
	<text transform="matrix(1 0 0 1 308.9492 747.2031)" class="st23 st8 st36">30%</text>
</g>
<g>
	<g>
		<text transform="matrix(1 0 0 1 128.2657 545.4403)" class="st7"><tspan x="0" y="0" class="st2 st8 st9">Daño </tspan><tspan x="0" y="19.2" class="st2 st8 st9">nervioso</tspan></text>
	</g>
</g>
<linearGradient id="SVGID_16_" gradientUnits="userSpaceOnUse" x1="76.296" y1="-1237.87" x2="101.2175" y2="-1237.87" gradientTransform="matrix(1 0 0 1 0 1774)">
	<stop  offset="0" style="stop-color:#FFFFFF"/>
	<stop  offset="1" style="stop-color:#FFFFFF;stop-opacity:0"/>
</linearGradient>
<path class="st37" d="M101.2,543.3c0,0-16.3,0-24.9-9.1c0,0,9.9,4.4,12.3,2.4c0,0,0.1-3.7-0.9-7.7c2.9,5.5,5.3,8.9,9.1,11.3
	L101.2,543.3z"/>
<line class="st38" x1="96.2" y1="541.7" x2="109.8" y2="541.7"/>
<text transform="matrix(1 0 0 1 50.3918 380.9007)" class="st7"><tspan x="0" y="0" class="st2 st8 st9">Estrés en la </tspan><tspan x="0" y="19.2" class="st2 st8 st9">Espina C</tspan></text>
</svg>
